<svg width="148" height="101" viewBox="0 0 148 101" fill="none" xmlns="http://www.w3.org/2000/svg">
<path d="M17.6072 41.2528C18.6786 39.3896 20.1924 37.9456 22.1488 36.9208C24.1052 35.8495 26.4109 35.3138 29.0659 35.3138C32.1868 35.3138 35.0049 36.129 37.5202 37.7593C40.0821 39.3896 42.085 41.7186 43.529 44.7463C45.0196 47.774 45.7649 51.3141 45.7649 55.3665C45.7649 59.419 45.0196 62.9824 43.529 66.0566C42.085 69.0843 40.0821 71.4133 37.5202 73.0436C35.0049 74.6739 32.1868 75.4891 29.0659 75.4891C26.4109 75.4891 24.1052 74.9767 22.1488 73.9519C20.1924 72.8806 18.6786 71.4133 17.6072 69.5501V75H3.91272V23.2962H17.6072V41.2528ZM31.8607 55.3665C31.8607 52.8046 31.162 50.825 29.7646 49.4276C28.4138 47.9836 26.7369 47.2616 24.734 47.2616C22.731 47.2616 21.0309 47.9836 19.6335 49.4276C18.2827 50.8716 17.6072 52.8512 17.6072 55.3665C17.6072 57.9284 18.2827 59.9314 19.6335 61.3753C21.0309 62.8193 22.731 63.5413 24.734 63.5413C26.7369 63.5413 28.4138 62.8193 29.7646 61.3753C31.162 59.8848 31.8607 57.8818 31.8607 55.3665ZM90.1105 35.8029L65.2368 93.6553H50.3544L59.717 73.3231L43.6469 35.8029H58.8786L67.1232 58.0216L75.0884 35.8029H90.1105ZM87.9636 55.3665C87.9636 51.3141 88.802 47.774 90.4789 44.7463C92.1558 41.7186 94.4848 39.3896 97.4659 37.7593C100.494 36.129 103.941 35.3138 107.807 35.3138C112.791 35.3138 116.983 36.6879 120.383 39.4362C123.784 42.1378 125.973 45.9341 126.951 50.825H112.418C111.58 48.2631 109.949 46.9821 107.527 46.9821C105.804 46.9821 104.43 47.7041 103.405 49.1481C102.427 50.5455 101.938 52.6183 101.938 55.3665C101.938 58.1147 102.427 60.2108 103.405 61.6548C104.43 63.0988 105.804 63.8208 107.527 63.8208C109.996 63.8208 111.626 62.5398 112.418 59.9779H126.951C125.973 64.8223 123.784 68.6185 120.383 71.3668C116.983 74.115 112.791 75.4891 107.807 75.4891C103.941 75.4891 100.494 74.6739 97.4659 73.0436C94.4848 71.4133 92.1558 69.0843 90.4789 66.0566C88.802 63.0289 87.9636 59.4656 87.9636 55.3665Z" fill="#121228"/>
<path d="M136.55 75.559C134.128 75.559 132.172 74.9068 130.681 73.6026C129.237 72.2518 128.515 70.5516 128.515 68.5021C128.515 66.4526 129.237 64.7524 130.681 63.4016C132.172 62.0508 134.128 61.3753 136.55 61.3753C138.926 61.3753 140.836 62.0508 142.28 63.4016C143.77 64.7524 144.516 66.4526 144.516 68.5021C144.516 70.505 143.77 72.1819 142.28 73.5327C140.836 74.8835 138.926 75.559 136.55 75.559Z" fill="url(#paint0_linear_740_638)"/>
<defs>
<linearGradient id="paint0_linear_740_638" x1="126" y1="22.4444" x2="155.221" y2="25.2291" gradientUnits="userSpaceOnUse">
<stop stop-color="#5ACB67"/>
<stop offset="1" stop-color="#0D98CF"/>
</linearGradient>
</defs>
</svg>
