<?xml version="1.0" standalone="no"?>
<!DOCTYPE svg PUBLIC "-//W3C//DTD SVG 20010904//EN"
 "http://www.w3.org/TR/2001/REC-SVG-20010904/DTD/svg10.dtd">
<svg version="1.0" xmlns="http://www.w3.org/2000/svg"
 width="512.000000pt" height="512.000000pt" viewBox="0 0 512.000000 512.000000"
 preserveAspectRatio="xMidYMid meet">
<metadata>
Created by potrace 1.14, written by Peter Selinger 2001-2017
</metadata>
<g transform="translate(0.000000,512.000000) scale(0.100000,-0.100000)"
fill="#000000" stroke="none">
<path d="M2369 5116 c-2 -2 -34 -6 -70 -10 -948 -89 -1796 -741 -2134 -1642
-36 -95 -98 -303 -109 -361 -2 -15 -9 -53 -15 -83 -29 -159 -36 -244 -35 -470
0 -113 4 -234 8 -270 5 -36 10 -72 11 -80 23 -189 109 -488 192 -674 180 -396
436 -724 774 -988 333 -259 758 -445 1154 -504 22 -3 51 -8 65 -10 120 -20
464 -26 614 -11 623 62 1234 376 1651 849 131 148 254 323 329 468 22 41 47
89 56 105 81 147 193 495 225 696 24 150 30 241 30 439 -1 245 -12 355 -59
560 -129 558 -440 1059 -880 1414 -92 74 -279 206 -292 206 -4 0 -15 6 -23 14
-20 18 -257 137 -331 166 -142 57 -380 128 -490 146 -14 2 -38 6 -55 9 -16 3
-50 8 -75 11 -25 3 -56 8 -70 11 -28 5 -466 14 -471 9z m-699 -1490 l0 -531
20 32 c92 151 290 275 495 308 133 22 330 8 449 -31 28 -10 52 -17 53 -16 2 1
38 -16 80 -39 196 -103 333 -248 436 -461 154 -317 176 -760 55 -1121 -32 -96
-118 -269 -148 -297 -3 -3 -18 -23 -35 -45 -117 -160 -335 -294 -545 -336 -72
-14 -256 -18 -336 -6 -197 27 -379 134 -487 284 l-32 45 -3 -156 -3 -156 -404
0 -405 0 0 1523 c0 838 2 1526 5 1529 3 3 185 5 405 5 l400 0 0 -531z m2551
-1711 c250 -64 382 -347 270 -579 -46 -94 -183 -202 -282 -221 -13 -3 -35 -7
-49 -10 -104 -20 -280 6 -369 56 -265 147 -273 538 -15 702 112 70 292 92 445
52z"/>
<path d="M1964 2722 c-183 -65 -284 -216 -291 -438 -9 -292 143 -487 391 -501
113 -7 200 19 282 86 110 90 165 222 165 400 -1 159 -40 261 -137 355 -82 81
-148 108 -269 112 -68 3 -103 -1 -141 -14z"/>
</g>
</svg>
